<?xml version="1.0" standalone="no"?>
<!DOCTYPE svg PUBLIC "-//W3C//DTD SVG 20010904//EN"
 "http://www.w3.org/TR/2001/REC-SVG-20010904/DTD/svg10.dtd">
<svg version="1.0" xmlns="http://www.w3.org/2000/svg"
 width="300.000000pt" height="284.000000pt" viewBox="0 0 300.000000 284.000000"
 preserveAspectRatio="xMidYMid meet">
<metadata>
Created by potrace 1.10, written by Peter Selinger 2001-2011
</metadata>
<g transform="translate(0.000000,284.000000) scale(0.100000,-0.100000)"
fill="#000000" stroke="none">
<path d="M2120 2428 c-85 -18 -150 -39 -150 -48 0 -6 -7 -10 -16 -10 -30 0
-207 -99 -300 -168 -111 -81 -228 -188 -220 -201 7 -10 -18 -34 -27 -25 -3 3
-10 -3 -16 -14 -20 -37 -207 -170 -263 -187 -56 -16 -162 -19 -219 -6 l-37 8
-90 -106 c-111 -129 -141 -170 -209 -285 -61 -104 -65 -122 -26 -110 16 4 101
8 191 10 l163 2 42 63 42 64 68 1 c65 1 68 0 63 -20 -3 -12 -6 -24 -6 -29 0
-4 -9 -2 -20 5 -18 11 -25 8 -61 -28 -35 -36 -40 -44 -30 -62 11 -21 4 -27
-81 -71 -16 -8 -28 -18 -28 -23 0 -4 -6 -8 -12 -8 -25 -1 -71 -47 -65 -64 5
-12 -1 -19 -17 -26 -15 -5 -32 -26 -44 -52 -10 -24 -29 -52 -41 -62 -14 -13
-21 -31 -21 -57 0 -31 -5 -40 -27 -51 -26 -13 -28 -17 -25 -70 2 -33 -1 -58
-7 -62 -6 -4 -11 -22 -11 -39 -1 -18 -7 -49 -14 -69 -8 -21 -12 -38 -9 -38 2
0 17 9 32 21 22 16 43 21 89 20 50 0 66 4 89 23 38 30 120 69 132 61 18 -11
110 44 126 74 8 16 23 32 34 36 10 3 48 44 84 91 36 47 80 95 98 107 39 26
101 105 93 118 -8 14 -24 11 -24 -5 0 -7 -35 -51 -78 -97 -42 -46 -94 -105
-115 -132 -21 -26 -54 -54 -73 -62 -19 -8 -34 -20 -34 -28 0 -18 -46 -61 -58
-53 -5 3 -15 -1 -22 -9 -9 -11 -23 -14 -45 -9 -19 3 -35 1 -39 -5 -5 -7 -13
-7 -26 1 -10 7 -16 16 -14 20 3 5 -7 6 -23 2 -38 -9 -42 -14 -11 -14 14 0 31
-7 39 -16 19 -23 -6 -36 -53 -29 -71 10 -123 14 -106 9 10 -3 18 -9 18 -14 0
-4 16 -8 35 -7 19 1 40 -4 46 -10 17 -17 -38 -30 -61 -15 -10 6 -21 7 -26 2
-5 -4 -24 -11 -42 -15 -37 -8 -44 11 -16 40 9 9 18 31 20 48 1 18 5 41 8 52 2
11 5 22 5 24 1 2 7 -1 14 -7 9 -8 12 -1 13 31 3 74 11 111 30 127 11 8 28 32
39 53 23 44 37 56 43 38 3 -8 9 -4 18 11 13 23 17 31 35 76 5 13 28 32 55 43
44 20 164 126 164 145 0 5 9 15 20 22 11 7 20 21 20 32 0 11 5 20 10 20 6 0
10 -11 10 -25 0 -14 -3 -25 -8 -25 -4 0 -13 -9 -20 -21 -12 -18 -11 -24 7 -43
27 -29 26 -36 -9 -64 l-30 -23 -24 25 c-25 28 -36 32 -36 15 0 -15 28 -49 73
-88 37 -33 52 -37 21 -6 -15 15 -14 18 12 46 17 18 22 29 14 29 -11 0 -11 3
-2 12 10 10 19 5 45 -20 l32 -33 -40 -37 c-22 -20 -39 -40 -38 -43 1 -3 -15
-22 -35 -41 -20 -19 -57 -71 -81 -114 -25 -44 -62 -103 -83 -131 -21 -29 -36
-53 -33 -53 8 0 236 199 317 277 38 36 66 69 63 74 -3 4 12 20 33 34 24 15 50
47 67 78 66 123 202 277 245 277 25 0 25 -7 3 -34 -13 -15 -10 -14 10 3 25 23
26 26 10 43 -9 10 -20 18 -24 18 -4 0 -45 -33 -91 -72 -46 -40 -117 -97 -158
-127 -41 -30 -92 -67 -112 -82 l-36 -29 -41 49 c-42 51 -49 69 -30 88 6 6 17
43 23 82 8 45 9 68 2 61 -20 -20 -25 -9 -12 33 27 85 38 106 50 101 8 -3 19
16 30 51 9 30 35 88 57 128 22 39 44 78 48 86 23 45 36 38 157 -90 65 -68 178
-185 251 -259 73 -75 133 -140 133 -145 0 -6 -20 -22 -43 -37 -23 -15 -67 -48
-97 -72 -30 -25 -67 -48 -82 -51 -16 -4 -28 -11 -28 -16 0 -6 -10 -8 -22 -5
-13 3 -17 3 -9 0 15 -7 -56 -38 -121 -53 -35 -8 -38 -7 -38 13 0 11 9 32 20
46 11 14 20 28 20 32 0 13 71 122 98 151 14 15 22 27 16 27 -13 -1 -94 -102
-133 -168 -19 -31 -47 -77 -64 -101 -25 -38 -28 -51 -23 -87 5 -39 3 -45 -26
-69 -17 -14 -48 -36 -69 -48 -38 -21 -52 -47 -26 -47 19 1 119 73 131 95 6 11
15 23 19 26 5 4 7 26 5 50 -3 42 -2 43 32 52 70 18 186 60 242 88 73 37 79 36
41 -3 -41 -45 -50 -76 -52 -193 l-2 -100 -42 -37 c-23 -21 -55 -50 -72 -66
-30 -27 -95 -78 -126 -97 -9 -5 -40 -27 -70 -47 -30 -21 -57 -38 -61 -38 -5 0
-8 38 -8 84 0 113 -9 176 -26 176 -11 0 -14 -16 -13 -67 2 -60 3 -63 9 -28 4
26 7 2 7 -70 -1 -80 -2 -97 -7 -60 l-7 50 -1 -47 c-1 -25 -4 -52 -7 -60 -3 -7
-1 -19 4 -27 16 -25 200 95 369 242 l90 79 -5 83 c-10 150 28 235 146 329 38
31 74 56 80 56 16 0 204 204 263 287 31 43 76 112 99 153 24 41 50 81 59 88
13 10 12 11 -5 5 -19 -6 -19 -5 -4 13 25 30 47 94 69 203 24 116 25 179 6 225
-24 58 -47 66 -171 65 -60 -1 -130 -5 -155 -11z m267 -16 c6 -4 17 -34 24 -68
11 -54 10 -73 -11 -182 -13 -68 -26 -119 -30 -115 -3 4 -30 38 -58 74 -53 69
-189 197 -255 242 -43 29 -47 27 58 46 62 11 256 13 272 3z m-336 -60 c68 -44
217 -189 270 -266 47 -67 57 -91 42 -98 -5 -1 -19 -25 -33 -53 -37 -76 -123
-213 -165 -264 -86 -105 -222 -241 -241 -241 -5 0 -20 13 -31 28 -20 28 -21
29 -2 40 10 7 19 18 19 25 0 6 -5 4 -11 -6 -22 -38 -52 -15 -251 196 -114 120
-120 128 -104 146 9 9 16 22 16 28 0 18 -32 24 -49 9 -14 -13 -20 -11 -53 20
l-38 34 25 36 c29 43 156 158 242 220 50 36 293 170 314 173 3 1 25 -12 50
-27z m-507 -460 c2 -4 1 -14 -4 -22 -7 -11 -12 -12 -21 -3 -6 6 -8 16 -5 22 8
13 23 14 30 3z m-254 -76 c0 -2 -22 -45 -49 -97 -27 -52 -63 -138 -81 -191
-31 -97 -37 -106 -56 -89 -17 16 -68 20 -103 8 -23 -8 -47 -31 -76 -72 -40
-58 -43 -60 -91 -63 -70 -5 -114 5 -115 26 0 13 -2 12 -9 -4 -6 -16 -20 -22
-57 -26 -26 -3 -55 -8 -63 -12 -8 -3 -21 -2 -29 3 -12 8 -6 23 28 81 23 39 62
92 85 119 23 26 57 68 76 94 18 26 35 45 38 43 2 -3 -11 -55 -28 -116 -18 -61
-31 -113 -28 -115 2 -2 19 46 37 108 35 115 57 166 89 204 17 19 32 22 138 26
144 6 167 9 176 22 4 6 18 10 30 10 14 0 22 5 20 13 -1 8 1 11 6 8 5 -3 18 1
28 9 18 14 34 19 34 11z m100 -548 c-10 -24 -44 -68 -74 -96 -29 -28 -49 -53
-42 -55 6 -2 0 -13 -14 -25 -14 -11 -26 -16 -28 -11 -5 14 -24 11 -20 -3 5
-15 -1 -22 -71 -73 -36 -25 -53 -33 -48 -22 12 30 72 106 85 107 6 0 12 6 12
14 0 8 7 21 15 30 9 8 22 31 30 50 10 24 34 48 73 73 65 43 96 60 100 58 1 -1
-7 -22 -18 -47z"/>
<path d="M1795 2249 c-101 -39 -192 -127 -216 -210 -25 -81 22 -166 106 -189
172 -48 368 91 368 260 0 105 -53 160 -153 159 -30 0 -77 -9 -105 -20z m183
-9 c38 -24 47 -43 57 -128 7 -59 6 -64 -14 -69 -13 -3 -21 -13 -21 -26 0 -32
-98 -119 -157 -140 -94 -34 -209 -13 -237 42 -29 56 -29 89 -2 145 14 29 35
61 47 72 l21 19 -21 -41 c-12 -23 -25 -58 -28 -78 -5 -32 -1 -40 36 -77 l41
-41 73 4 c84 4 142 34 178 91 85 139 8 260 -140 217 -54 -15 -49 -3 5 14 69
21 123 20 162 -4z m-50 -38 c37 -37 24 -152 -23 -198 -59 -59 -157 -72 -225
-29 -33 21 -40 31 -40 57 0 63 70 145 150 177 43 17 118 13 138 -7z"/>
<path d="M2304 2035 c-9 -23 5 -37 27 -25 10 6 19 16 19 22 0 7 -5 6 -15 -2
-9 -7 -19 -10 -22 -6 -4 4 -1 11 7 16 11 7 11 10 2 10 -7 0 -15 -7 -18 -15z"/>
<path d="M660 1021 c0 -27 19 -36 37 -18 18 18 9 37 -18 37 -12 0 -19 -7 -19
-19z"/>
<path d="M800 886 c0 -8 -11 -24 -25 -34 -14 -11 -22 -23 -17 -26 4 -2 20 10
35 29 16 20 23 36 17 40 -6 3 -10 -1 -10 -9z"/>
<path d="M917 675 c-4 -8 -2 -17 4 -21 12 -7 41 15 33 27 -8 14 -31 11 -37 -6z"/>
</g>
</svg>
